<svg width="24" height="24" viewBox="0 0 24 24" fill="none" xmlns="http://www.w3.org/2000/svg">
<path d="M12.4994 8.095H10.9994V14.095L15.7494 16.945L16.4994 15.715L12.4994 13.345V8.095ZM17.3364 1.905L21.9434 5.75L20.6634 7.285L16.0534 3.442L17.3364 1.905ZM6.6624 1.905L7.9444 3.441L3.3364 7.285L2.0564 5.749L6.6624 1.905ZM11.9994 4.095C7.0294 4.095 2.9994 8.125 2.9994 13.095C2.9994 18.065 7.0294 22.095 11.9994 22.095C16.9694 22.095 20.9994 18.065 20.9994 13.095C20.9994 8.125 16.9694 4.095 11.9994 4.095ZM11.9994 20.095C8.1394 20.095 4.9994 16.955 4.9994 13.095C4.9994 9.235 8.1394 6.095 11.9994 6.095C15.8594 6.095 18.9994 9.235 18.9994 13.095C18.9994 16.955 15.8594 20.095 11.9994 20.095Z" fill="#1C1C1C"/>
</svg>
