<svg width="44" height="44" viewBox="0 0 44 44" fill="none" xmlns="http://www.w3.org/2000/svg">
<path fill-rule="evenodd" clip-rule="evenodd" d="M22 44C34.1503 44 44 34.1503 44 22C44 9.84974 34.1503 0 22 0C9.84974 0 0 9.84974 0 22C0 34.1503 9.84974 44 22 44Z" fill="#BDC4CD"/>
<mask id="mask0_265_4058" style="mask-type:alpha" maskUnits="userSpaceOnUse" x="0" y="0" width="44" height="44">
<path fill-rule="evenodd" clip-rule="evenodd" d="M22 44C34.1503 44 44 34.1503 44 22C44 9.84974 34.1503 0 22 0C9.84974 0 0 9.84974 0 22C0 34.1503 9.84974 44 22 44Z" fill="white"/>
</mask>
<g mask="url(#mask0_265_4058)">
<path d="M17.1515 33.8011L11.346 36.9233C11.0053 37.1064 8.31223 38.1994 8.02734 38.4449C13.4146 42.5015 18.1692 43.4053 22.9432 43.4053C27.6819 43.4053 32.8953 40.8253 36.2706 38.0499C35.9593 37.7907 34.7489 37.1484 34.3744 36.9645L28.1577 33.9003C27.3544 33.5043 26.8471 32.695 26.8471 31.8096V29.4048C27.0218 29.2086 27.2215 28.9567 27.4352 28.6592C28.2825 27.4792 28.9235 26.1813 29.3677 24.8196C30.1651 24.5771 30.7525 23.851 30.7525 22.9881V20.4212C30.7525 19.8565 30.4977 19.352 30.1019 18.9987V15.288C30.1019 15.288 30.8751 9.51343 22.9432 9.51343C15.0113 9.51343 15.7844 15.288 15.7844 15.288V18.9987C15.3879 19.352 15.1339 19.8565 15.1339 20.4212V22.9881C15.1339 23.6643 15.4944 24.2593 16.034 24.6032C16.6846 27.3953 18.388 29.4048 18.388 29.4048V31.7503C18.3873 32.6045 17.9129 33.3913 17.1515 33.8011Z" fill="#DEE2E7"/>
</g>
</svg>
