<svg width="32" height="32" viewBox="0 0 32 32" fill="none" xmlns="http://www.w3.org/2000/svg">
<path fill-rule="evenodd" clip-rule="evenodd" d="M19.8953 10.99L18.4834 10.9909C17.3762 10.9909 17.1616 11.5169 17.1616 12.2884V13.9909H19.8025L19.4584 16.6581H17.1616V23.5H14.4081V16.6581H12.1056V13.9909H14.4081V12.025C14.4081 9.74219 15.8022 8.5 17.8375 8.5C18.8125 8.5 19.6506 8.57219 19.8953 8.605V10.99ZM16 1C7.71625 1 1 7.71531 1 16C1 24.2837 7.71625 31 16 31C24.2847 31 31 24.2837 31 16C31 7.71531 24.2847 1 16 1Z" fill="#505050"/>
</svg>
