<svg width="32" height="32" viewBox="0 0 32 32" fill="none" xmlns="http://www.w3.org/2000/svg">
<path fill-rule="evenodd" clip-rule="evenodd" d="M6 2C3.79086 2 2 3.79086 2 6V26C2 28.2091 3.79086 30 6 30H15.8331V20.4209H12.5224V16.6878H15.8331V13.9349C15.8331 10.7398 17.8366 9 20.7642 9C22.1665 9 23.371 9.10204 23.7224 9.14739V12.4868L21.6924 12.4878C20.1006 12.4878 19.7926 13.2247 19.7926 14.3049V16.6888H23.589L23.0948 20.4219H19.7926V30H26C28.2091 30 30 28.2091 30 26V6C30 3.79086 28.2091 2 26 2H6Z" fill="#505050"/>
</svg>
