<svg width="32" height="32" viewBox="0 0 32 32" fill="none" xmlns="http://www.w3.org/2000/svg">
<path fill-rule="evenodd" clip-rule="evenodd" d="M16 1C11.9262 1 11.4163 1.0175 9.81625 1.09C4.36875 1.34 1.34125 4.3625 1.09125 9.815C1.0175 11.4163 1 11.9262 1 16C1 20.0737 1.0175 20.585 1.09 22.185C1.34 27.6325 4.3625 30.66 9.815 30.91C11.4163 30.9825 11.9262 31 16 31C20.0737 31 20.585 30.9825 22.185 30.91C27.6275 30.66 30.6625 27.6375 30.9088 22.185C30.9825 20.585 31 20.0737 31 16C31 11.9262 30.9825 11.4163 30.91 9.81625C30.665 4.37375 27.6388 1.34125 22.1862 1.09125C20.585 1.0175 20.0737 1 16 1ZM16 8.29744C11.7463 8.29744 8.29751 11.7462 8.29751 15.9999C8.29751 20.2537 11.7463 23.7037 16 23.7037C20.2538 23.7037 23.7025 20.2549 23.7025 15.9999C23.7025 11.7462 20.2538 8.29744 16 8.29744ZM16 21C13.2388 21 11 18.7625 11 16C11 13.2387 13.2388 11 16 11C18.7613 11 21 13.2387 21 16C21 18.7625 18.7613 21 16 21ZM24.0075 6.19379C23.0125 6.19379 22.2062 7.00004 22.2062 7.99379C22.2062 8.98754 23.0125 9.79379 24.0075 9.79379C25.0012 9.79379 25.8062 8.98754 25.8062 7.99379C25.8062 7.00004 25.0012 6.19379 24.0075 6.19379Z" fill="#505050"/>
</svg>
