<svg width="32" height="32" viewBox="0 0 32 32" fill="none" xmlns="http://www.w3.org/2000/svg">
<path fill-rule="evenodd" clip-rule="evenodd" d="M20.5804 16.0171C20.5804 18.5268 18.5339 20.5696 16.0176 20.5696C13.5014 20.5696 11.4548 18.5268 11.4548 16.0171C11.4548 15.6008 11.5111 15.1967 11.617 14.8133H10.2136V21.3364C10.2136 21.568 10.4011 21.7555 10.6326 21.7555H21.4017C21.6342 21.7555 21.8217 21.568 21.8217 21.3364V14.8133H20.4183C20.5242 15.1967 20.5804 15.6008 20.5804 16.0171ZM19.3392 13.0694H21.367C21.5986 13.0694 21.787 12.8819 21.787 12.6512V10.6272C21.787 10.3966 21.5986 10.2091 21.367 10.2091H19.3392C19.1076 10.2091 18.9192 10.3966 18.9192 10.6272V12.6512C18.9192 12.8819 19.1076 13.0694 19.3392 13.0694ZM16.0175 18.8948C17.6103 18.8948 18.9022 17.6067 18.9022 16.0167C18.9022 14.4276 17.6103 13.1395 16.0175 13.1395C14.4247 13.1395 13.1328 14.4276 13.1328 16.0167C13.1328 17.6067 14.4247 18.8948 16.0175 18.8948ZM23.5 21.7206C23.5 22.7031 22.7022 23.5 21.7169 23.5H10.2831C9.29875 23.5 8.5 22.7031 8.5 21.7206V10.2784C8.5 9.29594 9.29875 8.5 10.2831 8.5H21.7169C22.7022 8.5 23.5 9.29594 23.5 10.2784V21.7206ZM1 31H31V1H1V31Z" fill="#505050"/>
</svg>
