<svg width="32" height="32" viewBox="0 0 32 32" fill="none" xmlns="http://www.w3.org/2000/svg">
<path fill-rule="evenodd" clip-rule="evenodd" d="M23.5 23.4859H20.3922V18.6222C20.3922 17.4625 20.3716 15.9709 18.7769 15.9709C17.1597 15.9709 16.9131 17.2347 16.9131 18.5397V23.4859H13.8081V13.4847H16.7875V14.8525H16.8306C17.245 14.0659 18.2594 13.2362 19.7716 13.2362C22.9187 13.2362 23.5 15.3072 23.5 18.0006V23.4859ZM10.3038 12.1187C9.30531 12.1187 8.5 11.3106 8.5 10.3159C8.5 9.32125 9.30531 8.51312 10.3038 8.51312C11.2975 8.51312 12.1047 9.32125 12.1047 10.3159C12.1047 11.3106 11.2975 12.1187 10.3038 12.1187ZM11.8581 23.4859H8.74656V13.4847H11.8581V23.4859ZM1 31H31V1H1V31Z" fill="#505050"/>
</svg>
