<svg width="32" height="32" viewBox="0 0 32 32" fill="none" xmlns="http://www.w3.org/2000/svg">
<path fill-rule="evenodd" clip-rule="evenodd" d="M26.5647 26.5628H22.1153V19.6009C22.1153 17.9406 22.0872 15.805 19.8034 15.805C17.4888 15.805 17.1353 17.6144 17.1353 19.4819V26.5628H12.6906V12.2463H16.9563V14.2038H17.0172C17.6106 13.0778 19.0619 11.8909 21.2266 11.8909C25.7322 11.8909 26.5647 14.8553 26.5647 18.7113V26.5628ZM7.67406 10.2906C6.24438 10.2906 5.09219 9.13469 5.09219 7.70969C5.09219 6.28562 6.24438 5.12969 7.67406 5.12969C9.09719 5.12969 10.2531 6.28562 10.2531 7.70969C10.2531 9.13469 9.09719 10.2906 7.67406 10.2906ZM9.89969 26.5628H5.44562V12.2463H9.89969V26.5628ZM29.7503 1H2.25063C1.55969 1 1 1.55969 1 2.24969V29.7494C1 30.4403 1.55969 31 2.25063 31H29.7503C30.4403 31 31 30.4403 31 29.7494V2.24969C31 1.55969 30.4403 1 29.7503 1Z" fill="#505050"/>
</svg>
