<svg width="32" height="32" viewBox="0 0 32 32" fill="none" xmlns="http://www.w3.org/2000/svg">
<path fill-rule="evenodd" clip-rule="evenodd" d="M21.9644 12.9409C21.97 13.0731 21.9738 13.2053 21.9738 13.3394C21.9738 17.4053 18.8781 22.0947 13.2175 22.0947C11.4794 22.0947 9.86219 21.5856 8.5 20.7128C8.74094 20.7409 8.98562 20.755 9.23406 20.755C10.6759 20.755 12.0025 20.2638 13.0562 19.4378C11.7091 19.4134 10.5728 18.5238 10.1809 17.3013C10.3694 17.3369 10.5616 17.3556 10.7603 17.3556C11.0406 17.3556 11.3125 17.3181 11.5712 17.2478C10.1631 16.9656 9.10281 15.7216 9.10281 14.2309C9.10281 14.2178 9.10281 14.2047 9.10281 14.1916C9.51719 14.4222 9.9925 14.5609 10.4969 14.5769C9.67094 14.0247 9.12719 13.0825 9.12719 12.0156C9.12719 11.4513 9.27906 10.9225 9.54437 10.4678C11.0622 12.3297 13.33 13.555 15.8875 13.6834C15.835 13.4584 15.8078 13.2231 15.8078 12.9822C15.8078 11.2825 17.1859 9.90438 18.8847 9.90438C19.7706 9.90438 20.5703 10.2784 21.1309 10.8766C21.8322 10.7388 22.4912 10.4828 23.0856 10.1303C22.8559 10.8484 22.3675 11.4513 21.7328 11.8328C22.3553 11.7578 22.9478 11.5928 23.5 11.3481C23.0875 11.965 22.5653 12.5069 21.9644 12.9409ZM1 31H31V1H1V31Z" fill="#505050"/>
</svg>
