<svg width="32" height="32" viewBox="0 0 32 32" fill="none" xmlns="http://www.w3.org/2000/svg">
<path fill-rule="evenodd" clip-rule="evenodd" d="M31 6.84068C29.8966 7.32244 28.7097 7.64822 27.4647 7.79496C28.7359 7.04465 29.7119 5.8578 30.1712 4.44299C28.9825 5.13701 27.6644 5.64092 26.2628 5.91317C25.1397 4.73555 23.5403 4 21.7703 4C18.3709 4 15.6156 6.7124 15.6156 10.0588C15.6156 10.5332 15.67 10.9956 15.775 11.4395C10.6591 11.1866 6.12437 8.77416 3.08875 5.1084C2.55906 6.00361 2.25531 7.04465 2.25531 8.15489C2.25531 10.2563 3.34187 12.1114 4.99281 13.1976C3.98406 13.1662 3.03531 12.894 2.20563 12.4399C2.20469 12.4658 2.20469 12.4907 2.20469 12.5165C2.20469 15.4523 4.32625 17.9007 7.1425 18.4572C6.62594 18.5957 6.08219 18.6695 5.52063 18.6695C5.12406 18.6695 4.73875 18.6316 4.36281 18.5615C5.14563 20.9684 7.41906 22.7201 10.1125 22.769C8.00594 24.3942 5.35187 25.3624 2.46812 25.3624C1.97125 25.3624 1.48188 25.3337 1 25.2784C3.72344 26.9968 6.95875 28 10.435 28C21.7563 28 27.9466 18.7673 27.9466 10.7612C27.9466 10.4981 27.9409 10.237 27.9287 9.9767C29.1316 9.12301 30.175 8.05614 31 6.84068Z" fill="#505050"/>
</svg>
