<svg width="32" height="32" viewBox="0 0 32 32" fill="none" xmlns="http://www.w3.org/2000/svg">
<path fill-rule="evenodd" clip-rule="evenodd" d="M9.28515 26.2412L9.73811 26.5094C11.6451 27.6353 13.8298 28.2306 16.057 28.2316H16.0626C22.9051 28.2316 28.4753 22.6881 28.4781 15.8753C28.479 12.5744 27.1889 9.46937 24.845 7.13406C22.5011 4.79875 19.3831 3.51156 16.0673 3.51062C9.21923 3.51062 3.64997 9.05313 3.64714 15.8659C3.6462 18.2003 4.30257 20.4737 5.54563 22.4416L5.84038 22.9084L4.58603 27.4684L9.28515 26.2412ZM1 31L3.11884 23.2966C1.81175 21.0419 1.12431 18.4844 1.12525 15.865C1.12807 7.66844 7.82927 1 16.0626 1C20.0583 1.00094 23.8091 2.54969 26.6286 5.35938C29.449 8.16906 31.0009 11.9041 31 15.8763C30.9962 24.0728 24.295 30.7422 16.0626 30.7422H16.056C13.5567 30.7412 11.0998 30.1169 8.91788 28.9328L1 31ZM12.0304 9.227C11.7084 8.454 11.3824 8.559 11.1384 8.547C10.9074 8.535 10.6434 8.533 10.3794 8.533C10.1144 8.533 9.6854 8.632 9.3224 9.029C8.9594 9.425 7.9354 10.384 7.9354 12.334C7.9354 14.284 9.3554 16.168 9.5534 16.433C9.7514 16.697 12.3484 20.699 16.3234 22.415C17.2694 22.823 18.0074 23.067 18.5834 23.25C19.5324 23.551 20.3964 23.509 21.0794 23.407C21.8414 23.293 23.4244 22.448 23.7544 21.523C24.0854 20.597 24.0854 19.804 23.9864 19.639C23.8874 19.474 23.6224 19.374 23.2264 19.176C22.8304 18.978 20.8814 18.019 20.5184 17.887C20.1544 17.755 19.8904 17.689 19.6264 18.085C19.3624 18.482 18.6024 19.374 18.3714 19.639C18.1404 19.903 17.9094 19.936 17.5124 19.738C17.1164 19.54 15.8394 19.121 14.3254 17.771C13.1474 16.721 12.3524 15.423 12.1204 15.027C11.8894 14.63 12.0964 14.416 12.2944 14.218C12.4724 14.041 12.6914 13.755 12.8894 13.524C13.0874 13.293 13.1534 13.127 13.2854 12.863C13.4174 12.598 13.3514 12.367 13.2524 12.169C13.1534 11.97 12.3604 10.02 12.0304 9.227Z" fill="#505050"/>
</svg>
