<svg width="32" height="32" viewBox="0 0 32 32" fill="none" xmlns="http://www.w3.org/2000/svg">
<path fill-rule="evenodd" clip-rule="evenodd" d="M19.6683 18.5884C19.5137 19.0225 18.7712 19.4181 18.414 19.4716C18.0943 19.5194 17.6893 19.5391 17.244 19.3984C16.974 19.3122 16.628 19.1978 16.1855 19.0066C14.3218 18.2022 13.104 16.3263 13.0112 16.2025C12.9183 16.0788 12.2527 15.1956 12.2527 14.2816C12.2527 13.3675 12.7327 12.9175 12.9033 12.7319C13.073 12.5463 13.2746 12.4994 13.3983 12.4994C13.5221 12.4994 13.6458 12.5003 13.7546 12.5059C13.869 12.5116 14.0218 12.4628 14.1727 12.8247C14.3274 13.1969 14.6987 14.1109 14.7455 14.2038C14.7915 14.2966 14.8224 14.4053 14.7605 14.5291C14.6987 14.6528 14.6677 14.7306 14.5749 14.8394C14.4821 14.9472 14.3799 15.0813 14.2965 15.1647C14.2037 15.2566 14.1062 15.3578 14.2149 15.5434C14.3237 15.7291 14.6958 16.3375 15.248 16.8297C15.9577 17.4625 16.5568 17.6584 16.7424 17.7522C16.928 17.845 17.0368 17.8291 17.1446 17.7053C17.2533 17.5816 17.6096 17.1634 17.7333 16.9769C17.8571 16.7913 17.9808 16.8222 18.1515 16.8841C18.3212 16.9459 19.2352 17.395 19.4208 17.4888C19.6065 17.5816 19.7302 17.6275 19.7771 17.7053C19.823 17.7831 19.823 18.1544 19.6683 18.5884ZM16.0337 9.75531C12.6249 9.75531 9.85178 12.5266 9.85084 15.9325C9.85084 17.0997 10.1771 18.2369 10.7958 19.2203L10.943 19.4538L10.3187 21.7337L12.6577 21.1206L12.8827 21.2537C13.8315 21.8172 14.919 22.1153 16.028 22.1153H16.0308C19.4368 22.1153 22.209 19.3441 22.2108 15.9372C22.2108 14.2863 21.5696 12.7347 20.4024 11.5666C19.2352 10.3994 17.6837 9.75531 16.0337 9.75531ZM16.0309 23.3706H16.0281C14.7831 23.3706 13.5606 23.0584 12.475 22.4659L8.53281 23.5L9.58844 19.6478C8.93781 18.5209 8.59469 17.2422 8.59562 15.9316C8.5975 11.8337 11.9322 8.5 16.0309 8.5C18.0194 8.5 19.8869 9.27437 21.2903 10.6797C22.6938 12.0841 23.4672 13.9516 23.4662 15.9381C23.4644 20.0359 20.1287 23.3706 16.0309 23.3706ZM16 1C7.71531 1 1 7.71531 1 16C1 24.2837 7.71531 31 16 31C24.2837 31 31 24.2837 31 16C31 7.71531 24.2837 1 16 1Z" fill="#505050"/>
</svg>
