<svg width="32" height="32" viewBox="0 0 32 32" fill="none" xmlns="http://www.w3.org/2000/svg">
<path fill-rule="evenodd" clip-rule="evenodd" d="M23.5 16.5662C23.5 17.7803 23.35 18.9944 23.35 18.9944C23.35 18.9944 23.2038 20.0275 22.7537 20.4831C22.1838 21.0803 21.5444 21.0831 21.2509 21.1178C19.1519 21.2697 16 21.2744 16 21.2744C16 21.2744 12.1 21.2388 10.9 21.1244C10.5662 21.0616 9.81625 21.0803 9.24625 20.4831C8.79625 20.0275 8.65 18.9944 8.65 18.9944C8.65 18.9944 8.5 17.7803 8.5 16.5662V15.4281C8.5 14.2141 8.65 13.0009 8.65 13.0009C8.65 13.0009 8.79625 11.9669 9.24625 11.5113C9.81625 10.9141 10.4556 10.9113 10.7491 10.8766C12.8481 10.7247 15.9972 10.7247 15.9972 10.7247H16.0028C16.0028 10.7247 19.1519 10.7247 21.2509 10.8766C21.5444 10.9113 22.1838 10.9141 22.7537 11.5113C23.2038 11.9669 23.35 13.0009 23.35 13.0009C23.35 13.0009 23.5 14.2141 23.5 15.4281V16.5662ZM16 1C7.71531 1 1 7.71531 1 16C1 24.2837 7.71531 31 16 31C24.2847 31 31 24.2837 31 16C31 7.71531 24.2847 1 16 1ZM14.4514 17.9453L18.5042 15.8453L14.4505 13.7303L14.4514 17.9453Z" fill="#505050"/>
</svg>
