<svg width="32" height="32" viewBox="0 0 32 32" fill="none" xmlns="http://www.w3.org/2000/svg">
<path fill-rule="evenodd" clip-rule="evenodd" d="M12.9025 20.3726L12.9016 11.9836L21.0072 16.1926L12.9025 20.3726ZM30.7 10.5299C30.7 10.5299 30.4066 8.47256 29.5075 7.56658C28.3666 6.37695 27.0878 6.37135 26.5019 6.30231C22.3037 6 16.0066 6 16.0066 6H15.9934C15.9934 6 9.69625 6 5.49813 6.30231C4.91125 6.37135 3.63344 6.37695 2.49156 7.56658C1.5925 8.47256 1.3 10.5299 1.3 10.5299C1.3 10.5299 1 12.9465 1 15.3622V17.6276C1 20.0442 1.3 22.4598 1.3 22.4598C1.3 22.4598 1.5925 24.5172 2.49156 25.4232C3.63344 26.6128 5.1325 26.5755 5.8 26.6996C8.2 26.9291 16 27 16 27C16 27 22.3037 26.9907 26.5019 26.6884C27.0878 26.6184 28.3666 26.6128 29.5075 25.4232C30.4066 24.5172 30.7 22.4598 30.7 22.4598C30.7 22.4598 31 20.0442 31 17.6276V15.3622C31 12.9465 30.7 10.5299 30.7 10.5299Z" fill="#505050"/>
</svg>
