<svg width="56" height="40" viewBox="0 0 56 40" fill="none" xmlns="http://www.w3.org/2000/svg">
<path d="M0 0H56V40H0V0Z" fill="#0A17A7"/>
<path fill-rule="evenodd" clip-rule="evenodd" d="M26.2322 32.7083L22.4084 33.0249L22.9334 36.6416L20.2997 33.9999L17.6659 36.6416L18.1909 33.0249L14.3672 32.7083L17.6659 30.8499L15.5397 27.8083L19.1272 29.0999L20.2997 25.6249L21.4809 29.0999L25.0684 27.8083L22.9422 30.8499M42.5772 36.0416L41.6497 34.7249L43.2072 35.2833L43.7147 33.7749L44.2222 35.2833L45.7797 34.7249L44.8609 36.0416L46.2959 36.8499L44.6334 36.9916L44.8609 38.5666L43.7234 37.4083L42.5684 38.5666L42.7959 36.9916L41.1334 36.8583M42.5684 12.5333L41.6497 11.2166L43.2072 11.7749L43.7147 10.2666L44.2222 11.7749L45.7797 11.2166L44.8609 12.5333L46.2959 13.3499L44.6334 13.4833L44.8609 15.0583L43.7234 13.9083L42.5684 15.0499L42.7959 13.4833L41.1334 13.3499M33.3197 22.0833L32.4009 20.7666L33.9584 21.3249L34.4659 19.8166L34.9822 21.3249L36.5397 20.7666L35.6122 22.0833L37.0472 22.8916L35.3847 23.0333L35.6209 24.6083L34.4659 23.4499L33.3284 24.6083L33.5472 23.0333L31.8847 22.8999M50.8109 19.7333L49.8747 18.4166L51.4322 18.9749L51.9397 17.4666L52.4559 18.9749L54.0134 18.4166L53.0947 19.7333L54.5209 20.5416L52.8584 20.6833L53.0859 22.2499L51.9484 21.0999L50.7934 22.2499L51.0209 20.6833L49.3584 20.5416M47.4247 26.6666L46.5234 27.2083L46.7772 26.2166L45.9634 25.5666L47.0222 25.4833L47.4247 24.5499L47.8359 25.4916L48.8947 25.5666L48.0809 26.2166L48.3347 27.2083" fill="white"/>
<path d="M3.28125 0L13.9563 7.54167L24.5875 0H28V2.58333L17.5 10.0417L28 17.4583V20H24.5L14 12.5417L3.54375 20H0V17.5L10.4563 10.0833L0 2.66667V0H3.28125Z" fill="white"/>
<path d="M18.55 11.7083L28 18.3333V20L16.1437 11.7083H18.55ZM10.5 12.5417L10.7625 14L2.3625 20H0L10.5 12.5417ZM28 0V0.125L17.1062 7.95833L17.1938 6.125L25.8125 0H28ZM0 0L10.4563 7.33333H7.83125L0 1.75V0Z" fill="#C8102E"/>
<path d="M10.5437 0V20H17.5437V0H10.5437ZM0 6.66667V13.3333H28V6.66667H0Z" fill="white"/>
<path d="M0 8.04167V12.0417H28V8.04167H0ZM11.9437 0V20H16.1437V0H11.9437Z" fill="#C8102E"/>
</svg>
