<svg width="28" height="20" viewBox="0 0 28 20" fill="none" xmlns="http://www.w3.org/2000/svg">
<rect width="28" height="20" fill="white"/>
<path fill-rule="evenodd" clip-rule="evenodd" d="M28 0.0098877H0V1.34189H28V0.0098877ZM28 2.67389H0V4.00589H28V2.67389ZM0 5.33789H28V6.6699H0V5.33789ZM28 8.0019H0V9.33389H28V8.0019ZM0 10.6659H28V11.9979H0V10.6659ZM28 13.3299H0V14.6619H28V13.3299ZM0 15.9939H28V17.3259H0V15.9939ZM28 18.6579H0V19.9899H28V18.6579Z" fill="#D02F44"/>
<path d="M12 0.0100098H0V9.33402H12V0.0100098Z" fill="#46467F"/>
<path fill-rule="evenodd" clip-rule="evenodd" d="M2.66659 2.00803C2.66659 2.37586 2.36811 2.67404 1.99992 2.67404C1.63173 2.67404 1.33325 2.37586 1.33325 2.00803C1.33325 1.64022 1.63173 1.34204 1.99992 1.34204C2.36811 1.34204 2.66659 1.64022 2.66659 2.00803ZM5.33325 2.00803C5.33325 2.37586 5.03478 2.67404 4.66659 2.67404C4.2984 2.67404 3.99992 2.37586 3.99992 2.00803C3.99992 1.64022 4.2984 1.34204 4.66659 1.34204C5.03478 1.34204 5.33325 1.64022 5.33325 2.00803ZM7.33325 2.67404C7.70144 2.67404 7.99992 2.37586 7.99992 2.00803C7.99992 1.64022 7.70144 1.34204 7.33325 1.34204C6.96506 1.34204 6.66659 1.64022 6.66659 2.00803C6.66659 2.37586 6.96506 2.67404 7.33325 2.67404ZM10.6665 2.00803C10.6665 2.37586 10.3681 2.67404 9.99992 2.67404C9.63173 2.67404 9.33325 2.37586 9.33325 2.00803C9.33325 1.64022 9.63173 1.34204 9.99992 1.34204C10.3681 1.34204 10.6665 1.64022 10.6665 2.00803ZM3.33325 4.00604C3.70144 4.00604 3.99992 3.70786 3.99992 3.34004C3.99992 2.97222 3.70144 2.67404 3.33325 2.67404C2.96506 2.67404 2.66659 2.97222 2.66659 3.34004C2.66659 3.70786 2.96506 4.00604 3.33325 4.00604ZM6.66659 3.34004C6.66659 3.70786 6.36811 4.00604 5.99992 4.00604C5.63173 4.00604 5.33325 3.70786 5.33325 3.34004C5.33325 2.97222 5.63173 2.67404 5.99992 2.67404C6.36811 2.67404 6.66659 2.97222 6.66659 3.34004ZM8.66659 4.00604C9.03478 4.00604 9.33325 3.70786 9.33325 3.34004C9.33325 2.97222 9.03478 2.67404 8.66659 2.67404C8.2984 2.67404 7.99992 2.97222 7.99992 3.34004C7.99992 3.70786 8.2984 4.00604 8.66659 4.00604ZM10.6665 4.67204C10.6665 5.03986 10.3681 5.33804 9.99992 5.33804C9.63173 5.33804 9.33325 5.03986 9.33325 4.67204C9.33325 4.30422 9.63173 4.00604 9.99992 4.00604C10.3681 4.00604 10.6665 4.30422 10.6665 4.67204ZM7.33325 5.33804C7.70144 5.33804 7.99992 5.03986 7.99992 4.67204C7.99992 4.30422 7.70144 4.00604 7.33325 4.00604C6.96506 4.00604 6.66659 4.30422 6.66659 4.67204C6.66659 5.03986 6.96506 5.33804 7.33325 5.33804ZM5.33325 4.67204C5.33325 5.03986 5.03478 5.33804 4.66659 5.33804C4.2984 5.33804 3.99992 5.03986 3.99992 4.67204C3.99992 4.30422 4.2984 4.00604 4.66659 4.00604C5.03478 4.00604 5.33325 4.30422 5.33325 4.67204ZM1.99992 5.33804C2.36811 5.33804 2.66659 5.03986 2.66659 4.67204C2.66659 4.30422 2.36811 4.00604 1.99992 4.00604C1.63173 4.00604 1.33325 4.30422 1.33325 4.67204C1.33325 5.03986 1.63173 5.33804 1.99992 5.33804ZM3.99992 6.00404C3.99992 6.37187 3.70144 6.67004 3.33325 6.67004C2.96506 6.67004 2.66659 6.37187 2.66659 6.00404C2.66659 5.63622 2.96506 5.33804 3.33325 5.33804C3.70144 5.33804 3.99992 5.63622 3.99992 6.00404ZM5.99992 6.67004C6.36811 6.67004 6.66659 6.37187 6.66659 6.00404C6.66659 5.63622 6.36811 5.33804 5.99992 5.33804C5.63173 5.33804 5.33325 5.63622 5.33325 6.00404C5.33325 6.37187 5.63173 6.67004 5.99992 6.67004ZM9.33325 6.00404C9.33325 6.37187 9.03478 6.67004 8.66659 6.67004C8.2984 6.67004 7.99992 6.37187 7.99992 6.00404C7.99992 5.63622 8.2984 5.33804 8.66659 5.33804C9.03478 5.33804 9.33325 5.63622 9.33325 6.00404ZM9.99992 8.00205C10.3681 8.00205 10.6665 7.70387 10.6665 7.33605C10.6665 6.96822 10.3681 6.67004 9.99992 6.67004C9.63173 6.67004 9.33325 6.96822 9.33325 7.33605C9.33325 7.70387 9.63173 8.00205 9.99992 8.00205ZM7.99992 7.33605C7.99992 7.70387 7.70144 8.00205 7.33325 8.00205C6.96506 8.00205 6.66659 7.70387 6.66659 7.33605C6.66659 6.96822 6.96506 6.67004 7.33325 6.67004C7.70144 6.67004 7.99992 6.96822 7.99992 7.33605ZM4.66659 8.00205C5.03478 8.00205 5.33325 7.70387 5.33325 7.33605C5.33325 6.96822 5.03478 6.67004 4.66659 6.67004C4.2984 6.67004 3.99992 6.96822 3.99992 7.33605C3.99992 7.70387 4.2984 8.00205 4.66659 8.00205ZM2.66659 7.33605C2.66659 7.70387 2.36811 8.00205 1.99992 8.00205C1.63173 8.00205 1.33325 7.70387 1.33325 7.33605C1.33325 6.96822 1.63173 6.67004 1.99992 6.67004C2.36811 6.67004 2.66659 6.96822 2.66659 7.33605Z" fill="url(#paint0_linear_636_716)"/>
<defs>
<linearGradient id="paint0_linear_636_716" x1="1.33325" y1="1.34204" x2="1.33325" y2="8.00204" gradientUnits="userSpaceOnUse">
<stop stop-color="white"/>
<stop offset="1" stop-color="#F0F0F0"/>
</linearGradient>
</defs>
</svg>
