<svg width="56" height="40" viewBox="0 0 56 40" fill="none" xmlns="http://www.w3.org/2000/svg">
<path fill-rule="evenodd" clip-rule="evenodd" d="M0 0H56V40H0V0Z" fill="#E31D1C"/>
<path fill-rule="evenodd" clip-rule="evenodd" d="M26.0017 7.87069L24.1311 9L24.5578 6.79624L23 5.14694L25.1093 5.05776L26.0017 3L26.8943 5.05776H29L27.4457 6.79624L27.9137 9L26.0017 7.87069Z" fill="#FECA00"/>
<path fill-rule="evenodd" clip-rule="evenodd" d="M12.0048 16.3649L7.01631 19L8.15414 13.8579L4 10.0095L9.62496 9.80145L12.0048 5L14.3846 9.80145H20L15.8554 13.8579L17.1031 19L12.0048 16.3649Z" fill="#FECA00"/>
<path fill-rule="evenodd" clip-rule="evenodd" d="M29.0017 14.0589L27.1311 15L27.5578 13.1635L26 11.7891L28.1093 11.7148L29.0017 10L29.8943 11.7148H32L30.4457 13.1635L30.9137 15L29.0017 14.0589Z" fill="#FECA00"/>
<path fill-rule="evenodd" clip-rule="evenodd" d="M27.5014 21.059L25.9426 22L26.2981 20.1636L25 18.7891L26.7577 18.7148L27.5014 17L28.2452 18.7148H30L28.7048 20.1636L29.0948 22L27.5014 21.059Z" fill="#FECA00"/>
<path fill-rule="evenodd" clip-rule="evenodd" d="M22.5014 26.0589L20.9426 27L21.2981 25.1636L20 23.789L21.7577 23.7148L22.5014 22L23.2452 23.7148H25L23.7048 25.1636L24.0948 27L22.5014 26.0589Z" fill="#FECA00"/>
</svg>
