<svg width="28" height="20" viewBox="0 0 28 20" fill="none" xmlns="http://www.w3.org/2000/svg" xmlns:xlink="http://www.w3.org/1999/xlink">
<rect width="28" height="20" fill="url(#pattern0)"/>
<path d="M0 0H28V20H0V0Z" fill="#0A17A7"/>
<path d="M3.28125 0L13.9563 7.54167L24.5875 0H28V2.58333L17.5 10.0417L28 17.4583V20H24.5L14 12.5417L3.54375 20H0V17.5L10.4563 10.0833L0 2.66667V0H3.28125Z" fill="white"/>
<path d="M18.55 11.7083L28 18.3333V20L16.1437 11.7083H18.55ZM10.5 12.5417L10.7625 14L2.3625 20H0L10.5 12.5417ZM28 0V0.125L17.1062 7.95833L17.1938 6.125L25.8125 0H28ZM0 0L10.4563 7.33333H7.83125L0 1.75V0Z" fill="#C8102E"/>
<path d="M10.5437 0V20H17.5437V0H10.5437ZM0 6.66667V13.3333H28V6.66667H0Z" fill="white"/>
<path d="M0 8.04167V12.0417H28V8.04167H0ZM11.9437 0V20H16.1437V0H11.9437Z" fill="#C8102E"/>
</svg>
